# xmcd
#
# Track frame offsets:
#	150
#	10489
#	22473
#	33228
#	43355
#	55359
#	65936
#	77653
#	90638
#	100503
#	110902
#	120969
#	134028
#	145117
#	156234
#	167357
#	178805
#	190571
#	203714
#	214697
#	226781
#	240405
#	253424
#
# Disc length: 3528 seconds
#
# Revision: 1
# Processed by: cddbd v1.5.2PL0 Copyright (c) Steve Scherf et al.
# Submitted via: audiograbber 1.83.01
#
DISCID=490dc617
DTITLE=Bill Haley and his Comets - The Essential CD3
DYEAR=2012
DGENRE=Rock`n Roll
TTITLE0=Rock-A-Beatin`Boogie
TTITLE1=Rudy`s Rock
TTITLE2=Choo Choo Ch`Boogie
TTITLE3=Birth Of The Boogie
TTITLE4=Goofin`Around
TTITLE5=Pat-A-Cake
TTITLE6=Happy baby
TTITLE7=Rockin` Chair On The Moon (With The Saddleman) 
TTITLE8=Whole Lotta Shakin`Goin`On
TTITLE9=Teenager`s Mother (Are You Right?)
TTITLE10=Week End (The Kingsmen)
TTITLE11=Thirteen Women (And Only One Man In Town)
TTITLE12=Eloise
TTITLE13=Whoa, Mabel !
TTITLE14=The Catwalk
TTITLE15=Rocket `88`(With The Saddleman)
TTITLE16=A Rocking Little Tune
TTITLE17=The Beak "Speaks"
TTITLE18=How Many ?
TTITLE19=Move It On Over
TTITLE20=Charmaine
TTITLE21=Juke Box Cannonball
TTITLE22=Rockin`Rollin`Rover
EXTD=
EXTT0=
EXTT1=
EXTT2=
EXTT3=
EXTT4=
EXTT5=
EXTT6=
EXTT7=
EXTT8=
EXTT9=
EXTT10=
EXTT11=
EXTT12=
EXTT13=
EXTT14=
EXTT15=
EXTT16=
EXTT17=
EXTT18=
EXTT19=
EXTT20=
EXTT21=
EXTT22=
PLAYORDER=
